<?xml version="1.0" standalone="no"?>
<!DOCTYPE svg PUBLIC "-//W3C//DTD SVG 20010904//EN"
 "http://www.w3.org/TR/2001/REC-SVG-20010904/DTD/svg10.dtd">
<svg version="1.0" xmlns="http://www.w3.org/2000/svg"
 width="256.000000pt" height="256.000000pt" viewBox="0 0 256.000000 256.000000"
 preserveAspectRatio="xMidYMid meet">
<metadata>
Created by potrace 1.14, written by Peter Selinger 2001-2017
</metadata>
<g transform="translate(0.000000,256.000000) scale(0.100000,-0.100000)"
fill="#000000" stroke="none">
<path d="M1374 2539 c-14 -24 -180 -79 -279 -94 -22 -3 -47 -7 -55 -10 -8 -2
-33 -6 -55 -9 -22 -4 -51 -8 -65 -11 -31 -5 -92 -14 -145 -21 -97 -12 -295
-47 -345 -61 -177 -50 -293 -168 -304 -309 -4 -60 14 -136 42 -173 l20 -28
-68 -22 c-107 -34 -149 -102 -101 -163 40 -51 590 -256 856 -319 96 -23 183
-22 360 1 44 6 103 13 130 17 172 22 315 -30 425 -154 118 -134 165 -349 109
-498 -26 -70 -111 -163 -192 -211 -69 -41 -200 -81 -286 -88 l-61 -5 -289 174
c-159 96 -297 175 -308 175 -24 0 -53 -30 -53 -53 0 -30 151 -542 163 -554 11
-11 161 -55 227 -67 14 -2 61 -11 105 -19 70 -14 251 -30 325 -30 256 0 536
113 723 289 99 95 198 245 246 374 71 193 77 434 15 625 -118 361 -467 653
-884 739 -41 8 -97 18 -125 22 -89 12 -332 11 -427 -2 -51 -7 -112 -16 -136
-19 -23 -3 -98 -21 -165 -40 -113 -32 -163 -47 -351 -104 -93 -28 -117 -27
-151 9 -20 21 -29 42 -33 78 -11 120 64 203 223 246 48 13 338 63 465 80 174
24 403 80 465 114 63 34 84 72 61 108 -17 25 -69 34 -82 13z m60 -594 c50 -4
97 -8 105 -10 114 -22 142 -29 146 -35 2 -4 -23 -105 -55 -224 -33 -119 -60
-219 -60 -221 0 -1 -44 -2 -97 -2 -87 1 -164 -5 -234 -18 -106 -21 -248 -24
-324 -9 -120 25 -732 238 -760 265 -5 6 -3 9 8 9 10 0 115 30 235 66 236 72
252 76 422 122 128 34 145 38 280 52 85 9 227 17 240 14 3 -1 45 -5 94 -9z
m469 -125 c106 -53 192 -116 280 -203 65 -65 147 -173 147 -194 0 -4 -89 -61
-197 -126 l-197 -118 -25 33 c-61 80 -150 157 -212 185 l-27 11 19 69 c11 37
38 133 60 213 48 176 46 170 60 170 6 0 48 -18 92 -40z m513 -595 c40 -145 38
-316 -7 -460 -18 -58 -64 -172 -75 -183 -1 -2 -69 33 -151 78 l-148 81 1 78
c1 51 -6 108 -21 167 -13 49 -21 91 -18 94 2 3 91 57 196 121 216 130 194 128
223 24z m-243 -690 c48 -26 87 -52 87 -59 0 -22 -141 -151 -223 -204 -140 -91
-290 -138 -475 -149 -92 -5 -116 -3 -123 8 -7 11 -23 100 -24 133 0 5 17 11
39 13 107 8 290 78 376 142 56 42 110 102 142 159 l30 53 42 -24 c22 -14 80
-46 129 -72z m-1080 -125 c103 -62 192 -120 197 -129 4 -9 10 -29 13 -46 3
-16 8 -46 12 -66 l7 -37 -45 9 c-25 4 -62 10 -84 13 -70 8 -221 47 -231 59 -5
7 -29 80 -52 162 -23 83 -45 157 -48 165 -5 13 -3 13 18 -1 14 -8 110 -66 213
-129z"/>
<path d="M617 1789 c-32 -18 -47 -67 -32 -102 24 -57 86 -73 131 -33 21 18 28
32 28 61 0 64 -72 106 -127 74z"/>
<path d="M659 1258 c-8 -7 -66 -58 -129 -112 -156 -135 -150 -129 -155 -158
-7 -39 22 -64 65 -58 18 2 168 129 282 236 36 34 37 36 25 67 -10 25 -20 33
-44 35 -17 2 -37 -3 -44 -10z"/>
<path d="M1379 1251 c-37 -14 -299 -239 -309 -265 -16 -43 32 -86 73 -65 30
17 205 161 284 236 26 25 29 51 11 75 -17 20 -39 27 -59 19z"/>
<path d="M994 1226 c-23 -12 -220 -183 -270 -233 -24 -24 -31 -39 -27 -55 20
-81 65 -66 218 73 22 20 63 56 92 80 66 56 84 96 55 122 -26 22 -46 26 -68 13z"/>
</g>
</svg>
